<?xml version="1.0" encoding="utf-8"?>
<!-- Generator: Adobe Illustrator 16.0.0, SVG Export Plug-In . SVG Version: 6.00 Build 0)  -->
<!DOCTYPE svg PUBLIC "-//W3C//DTD SVG 1.1//EN" "http://www.w3.org/Graphics/SVG/1.1/DTD/svg11.dtd">
<svg version="1.1" id="Layer_1" xmlns="http://www.w3.org/2000/svg" xmlns:xlink="http://www.w3.org/1999/xlink" x="0px" y="0px"
	 width="1000px" height="1200px" viewBox="0 0 1000 1200" enable-background="new 0 0 1000 1200" xml:space="preserve">
<polygon fill="#FFFFFF" points="250,100 250,193.46 93.46,193.46 93.46,350 0,350 0,100 "/>
<polygon fill="#FFFFFF" points="250,1006.54 250,1100 0,1100 0,850 93.46,850 93.46,1006.54 "/>
<polygon fill="#FFFFFF" points="1000,850 1000,1100 750,1100 750,1006.54 906.54,1006.54 906.54,850 "/>
<polygon fill="#FFFFFF" points="1000,100 1000,350 906.54,350 906.54,193.46 750,193.46 750,100 "/>
<path fill="#FFFFFF" d="M743.81,831.538v32.644H256.191v-32.644l169.27-102.789c0,0-47.371-50.037-47.371-131.771
	c0-80.311,0,0,0-116.071c0-116.071,80.977-145.088,121.924-145.088s121.899,29.018,121.899,145.088c0,161.795,0,34.337,0,116.071
	s-47.374,131.771-47.374,131.771L743.81,831.538z"/>
</svg>
