<?xml version="1.0" encoding="utf-8"?>
<!-- Generator: Adobe Illustrator 16.0.0, SVG Export Plug-In . SVG Version: 6.00 Build 0)  -->
<!DOCTYPE svg PUBLIC "-//W3C//DTD SVG 1.1//EN" "http://www.w3.org/Graphics/SVG/1.1/DTD/svg11.dtd">
<svg version="1.1" id="Layer_1" xmlns="http://www.w3.org/2000/svg" xmlns:xlink="http://www.w3.org/1999/xlink" x="0px" y="0px"
	 width="1000px" height="1200px" viewBox="0 0 1000 1200" enable-background="new 0 0 1000 1200" xml:space="preserve">
<g id="background" display="none">
	<rect y="100" display="inline" fill="#4998D3" width="1000" height="1000"/>
</g>
<g id="calendar">
	<path fill="#FFFFFF" d="M997.424,420.313v555.553c0,42.353-34.047,75.568-75.567,75.568H78.145
		c-41.521,0-75.569-34.046-75.569-75.568V420.313H997.424z"/>
	<path fill="#FFFFFF" d="M997.424,299.071v74.738H2.576v-74.738c0-41.521,34.047-75.569,75.569-75.569H128.8v-38.2
		c0-15.777,6.644-30.725,17.439-41.521c10.796-10.796,24.913-17.439,41.521-17.439c32.386,0,58.129,26.574,58.129,58.13v39.029
		h508.22v-38.2c0-15.777,6.643-30.725,17.439-41.521c10.794-10.796,24.911-17.439,41.521-17.439
		c32.387,0,58.129,26.574,58.129,58.13v39.029h50.657C963.377,223.502,997.424,257.549,997.424,299.071z"/>
</g>
<g id="analytics" display="none">
	<g display="inline">
		<polygon fill="#FFFFFF" points="898.889,963.889 898.889,1003.333 101.111,1003.333 101.111,200 140.556,200 140.556,963.889 		
			"/>
	</g>
	<circle display="inline" fill="#FFFFFF" cx="223.889" cy="906.111" r="27.778"/>
	<circle display="inline" fill="#FFFFFF" cx="331.667" cy="703.889" r="27.778"/>
	<circle display="inline" fill="#FFFFFF" cx="439.444" cy="854.445" r="27.778"/>
	<circle display="inline" fill="#FFFFFF" cx="547.223" cy="525" r="27.777"/>
	<circle display="inline" fill="#FFFFFF" cx="655" cy="703.889" r="27.778"/>
	<circle display="inline" fill="#FFFFFF" cx="762.777" cy="442.222" r="27.778"/>
	<circle display="inline" fill="#FFFFFF" cx="871.111" cy="325.556" r="27.778"/>
	<polyline display="inline" fill="none" stroke="#FFFFFF" stroke-width="2" stroke-miterlimit="10" points="223.889,906.111 
		223.889,906.111 331.667,703.889 439.444,854.444 547.223,525 655,703.889 762.777,442.223 870.556,325.556 	"/>
</g>
<g id="employees" display="none">
	<path display="inline" fill="#FFFFFF" d="M508.333,301.111c-72.222,0-131.11,58.333-131.11,131.111
		c0,72.222,58.333,131.11,131.11,131.11c72.223,0,131.111-58.889,131.111-131.11C639.444,359.444,580.556,301.111,508.333,301.111z
		 M578.333,419.444c0-18.333-14.444-32.778-32.777-32.778c18.333,0,32.777-14.444,32.777-32.778
		c0,18.333,14.444,32.778,32.778,32.778C592.777,386.667,578.333,401.111,578.333,419.444z"/>
	<path display="inline" fill="#FFFFFF" d="M643.889,353.889c0-18.333-14.444-32.777-32.777-32.777
		c18.333,0,32.777-14.445,32.777-32.778c0,18.333,14.444,32.778,32.778,32.778C658.333,321.111,643.889,335.556,643.889,353.889z"/>
	<path display="inline" fill="#FFFFFF" d="M578.333,288.333c0-18.333-14.444-32.778-32.777-32.778
		c18.333,0,32.777-14.444,32.777-32.778c0,18.333,14.444,32.778,32.778,32.778C592.777,255.556,578.333,270,578.333,288.333z"/>
	<g display="inline">
		<polygon fill="#FFFFFF" points="502.777,866.667 536.111,832.777 502.777,627.223 468.889,833.333 		"/>
	</g>
	<polygon display="inline" fill="#FFFFFF" points="337.777,640 337.777,640 337.777,639.444 	"/>
	<polygon display="inline" fill="#FFFFFF" points="726.111,691.667 680.556,737.777 634.444,691.667 634.444,993.889 
		543.333,993.889 542.777,992.777 507.777,958.333 500.556,950.556 492.777,958.333 457.777,992.777 457.223,993.889 
		366.111,993.889 366.111,691.667 320.556,737.223 274.444,691.667 366.111,600 475.556,600 489.444,625 453.333,832.777 
		501.667,881.111 550,832.777 513.889,625 527.777,600 634.444,600 634.444,600 634.444,600 	"/>
	<path display="inline" fill="#FFFFFF" d="M728.889,791.111L728.889,791.111L728.889,791.111z"/>
	<path display="inline" fill="#FFFFFF" d="M816.111,555.556c-41.667,0-75.556,33.889-75.556,75.556
		c0,41.666,33.889,75.556,75.556,75.556c41.666,0,75.556-33.89,75.556-75.556C891.667,589.444,857.777,555.556,816.111,555.556z
		 M856.667,623.889c0-10.556-8.334-18.889-18.89-18.889c10.556,0,18.89-8.333,18.89-18.889c0,10.556,8.333,18.889,18.889,18.889
		C865,605,856.667,613.889,856.667,623.889z"/>
	<path display="inline" fill="#FFFFFF" d="M894.444,586.111c0-10.556-8.333-18.889-18.889-18.889
		c10.556,0,18.889-8.334,18.889-18.89c0,10.556,8.333,18.89,18.889,18.89C902.777,567.223,894.444,575.556,894.444,586.111z"/>
	<path display="inline" fill="#FFFFFF" d="M856.667,548.333c0-10.556-8.334-18.889-18.89-18.889c10.556,0,18.89-8.333,18.89-18.889
		c0,10.556,8.333,18.889,18.889,18.889C865,529.444,856.667,537.777,856.667,548.333z"/>
	<g display="inline">
		<polygon fill="#FFFFFF" points="812.777,882.777 832.223,863.333 812.777,744.444 793.333,863.333 		"/>
	</g>
	<polygon display="inline" fill="#FFFFFF" points="942.223,781.667 915.556,808.333 888.889,781.667 888.889,956.111 
		836.667,956.111 836.111,955.556 816.111,935.556 811.667,931.111 807.223,935.556 786.667,955.556 786.667,956.111 
		733.889,956.111 733.889,781.667 707.223,808.333 681.111,781.667 733.889,728.889 797.223,728.889 805,742.777 784.444,863.333 
		812.223,891.111 840,863.333 819.444,742.777 827.223,728.889 888.889,728.889 888.889,728.889 888.889,728.889 	"/>
	<path display="inline" fill="#FFFFFF" d="M184.444,555.556c-41.667,0-75.556,33.889-75.556,75.556
		c0,41.666,33.889,75.556,75.556,75.556c41.667,0,75.556-33.89,75.556-75.556C260,589.444,226.111,555.556,184.444,555.556z
		 M225,623.889c0-10.556-8.333-18.889-18.889-18.889c10.555,0,18.889-8.333,18.889-18.889c0,10.556,8.333,18.889,18.889,18.889
		C233.333,605,225,613.889,225,623.889z"/>
	<path display="inline" fill="#FFFFFF" d="M262.778,586.111c0-10.556-8.333-18.889-18.889-18.889
		c10.556,0,18.889-8.334,18.889-18.89c0,10.556,8.333,18.89,18.889,18.89C271.111,567.223,262.778,575.556,262.778,586.111z"/>
	<path display="inline" fill="#FFFFFF" d="M225,548.333c0-10.556-8.333-18.889-18.889-18.889c10.555,0,18.889-8.333,18.889-18.889
		c0,10.556,8.333,18.889,18.889,18.889C233.333,529.444,225,537.777,225,548.333z"/>
	<g display="inline">
		<polygon fill="#FFFFFF" points="187.778,882.777 168.333,863.333 187.778,744.444 207.222,863.333 		"/>
	</g>
	<polygon display="inline" fill="#FFFFFF" points="58.889,781.667 85,808.333 111.667,781.667 111.667,956.111 164.444,956.111 
		165,955.556 185,935.556 189.444,931.111 193.889,935.556 213.889,955.556 214.444,956.111 266.667,956.111 266.667,781.667 
		293.333,808.333 320,781.667 266.667,728.889 203.889,728.889 195.556,742.777 216.111,863.333 188.333,891.111 160.556,863.333 
		181.111,742.777 173.333,728.889 111.667,728.889 111.667,728.889 111.667,728.889 	"/>
</g>
<g id="leads" display="none">
	<path display="inline" fill="#FFFFFF" d="M755,252.222H652.223c2.222,6.667,3.333,13.889,3.333,21.667
		c0,39.445-32.223,71.667-71.667,71.667H415c-39.444,0-71.667-32.222-71.667-71.667c0-7.777,1.111-15,3.334-21.667h-96.111
		c-42.222,0-76.111,33.889-76.111,76.111v639.444c0,42.223,33.889,76.111,76.111,76.111h505c42.222,0,76.111-33.889,76.111-76.111
		V328.333C831.111,286.111,797.223,252.222,755,252.222z M776.667,911.111c0,35-28.334,63.333-63.334,63.333H292.778
		c-35,0-63.333-28.333-63.333-63.333V474.444c0-35,28.333-63.333,63.333-63.333h420.555c35,0,63.334,28.333,63.334,63.333V911.111
		L776.667,911.111z"/>
	<path display="inline" fill="#FFFFFF" d="M362.223,553.333c0,8.89-7.223,16.667-16.667,16.667h-44.444
		c-8.889,0-16.667-7.223-16.667-16.667v-44.444c0-8.889,7.222-16.666,16.667-16.666h44.444c8.889,0,16.667,7.222,16.667,16.666
		V553.333z"/>
	<path display="inline" fill="#FFFFFF" d="M713.889,553.333c0,8.89-7.222,16.667-16.666,16.667H406.111
		c-8.889,0-16.667-7.223-16.667-16.667v-44.444c0-8.889,7.223-16.666,16.667-16.666h291.111c8.889,0,16.666,7.222,16.666,16.666
		V553.333L713.889,553.333z"/>
	<path display="inline" fill="#FFFFFF" d="M362.223,659.444c0,8.889-7.223,16.667-16.667,16.667h-44.444
		c-8.889,0-16.667-7.223-16.667-16.667V615c0-8.889,7.222-16.667,16.667-16.667h44.444c8.889,0,16.667,7.223,16.667,16.667V659.444z
		"/>
	<path display="inline" fill="#FFFFFF" d="M713.889,659.444c0,8.889-7.222,16.667-16.666,16.667H406.111
		c-8.889,0-16.667-7.223-16.667-16.667V615c0-8.889,7.223-16.667,16.667-16.667h291.111c8.889,0,16.666,7.223,16.666,16.667V659.444
		L713.889,659.444z"/>
	<path display="inline" fill="#FFFFFF" d="M362.223,766.111c0,8.889-7.223,16.666-16.667,16.666h-44.444
		c-8.889,0-16.667-7.222-16.667-16.666v-44.444c0-8.89,7.222-16.667,16.667-16.667h44.444c8.889,0,16.667,7.223,16.667,16.667
		V766.111z"/>
	<path display="inline" fill="#FFFFFF" d="M713.889,766.111c0,8.889-7.222,16.666-16.666,16.666H406.111
		c-8.889,0-16.667-7.222-16.667-16.666v-44.444c0-8.89,7.223-16.667,16.667-16.667h291.111c8.889,0,16.666,7.223,16.666,16.667
		V766.111L713.889,766.111z"/>
	<path display="inline" fill="#FFFFFF" d="M362.223,872.223c0,8.889-7.223,16.666-16.667,16.666h-44.444
		c-8.889,0-16.667-7.222-16.667-16.666v-44.445c0-8.889,7.222-16.666,16.667-16.666h44.444c8.889,0,16.667,7.222,16.667,16.666
		V872.223z"/>
	<path display="inline" fill="#FFFFFF" d="M713.889,872.223c0,8.889-7.222,16.666-16.666,16.666H406.111
		c-8.889,0-16.667-7.222-16.667-16.666v-44.445c0-8.889,7.223-16.666,16.667-16.666h291.111c8.889,0,16.666,7.222,16.666,16.666
		V872.223L713.889,872.223z"/>
	<g display="inline">
		<path fill="#FFFFFF" d="M639.444,252.222c-8.889-22.222-30-37.778-55-37.778h-25C559.444,181.667,532.777,155,500,155
			s-59.444,26.667-59.444,59.444h-25c-25,0-46.667,15.556-55,37.778c-2.778,6.667-3.889,13.889-3.889,21.667
			c0,32.778,26.666,59.445,59.444,59.445H585c32.777,0,59.444-26.667,59.444-59.445
			C643.333,266.111,641.667,258.889,639.444,252.222z M499.444,207.222c-10,0-18.333-8.333-18.333-18.333
			s8.333-18.333,18.333-18.333s18.333,8.333,18.333,18.333C518.333,199.444,510,207.222,499.444,207.222z"/>
	</g>
</g>
<g id="projects" display="none">
</g>
</svg>
