<?xml version="1.0" encoding="utf-8"?>
<!-- Generator: Adobe Illustrator 16.0.0, SVG Export Plug-In . SVG Version: 6.00 Build 0)  -->
<!DOCTYPE svg PUBLIC "-//W3C//DTD SVG 1.1//EN" "http://www.w3.org/Graphics/SVG/1.1/DTD/svg11.dtd">
<svg version="1.1" id="Layer_2" xmlns="http://www.w3.org/2000/svg" xmlns:xlink="http://www.w3.org/1999/xlink" x="0px" y="0px"
	 width="500px" height="500px" viewBox="0 0 500 500" enable-background="new 0 0 500 500" xml:space="preserve">
<path fill="#73ACAE" d="M301.523,108.072c0,1.682-1.363,3.045-3.046,3.045h-96.956c-1.682,0-3.046-1.363-3.046-3.045V31.928
	c0-1.682,1.364-3.045,3.046-3.045h96.956c1.683,0,3.046,1.363,3.046,3.045V108.072z"/>
<rect x="175.75" y="182" fill="#AAD3D5" width="148.583" height="66.667"/>
<polygon fill="#73ACAE" points="311.33,318 311.33,398.07 188.5,398.07 188.5,318 219.83,318 219.83,337.67 280.17,337.67 
	280.17,318 "/>
<rect x="171.667" y="411" fill="#AAD3D5" width="156.5" height="39.25"/>
<path fill="#D7EEEF" d="M171.67,301.33V411h156.5V301.33H171.67z M311.33,398.07H188.5V318h122.83V398.07z"/>
<polygon fill="#D7EEEF" points="230.333,343.667 217.167,343.667 188.5,398.07 201.667,398.07 "/>
<polygon fill="#D7EEEF" points="269.522,343.667 282.689,343.667 311.355,398.07 298.189,398.07 "/>
<rect x="211.338" y="335.954" fill="#AAD3D5" width="77.323" height="8.592"/>
<path fill="#AAD3D5" d="M215.75,318v4.17h-1.5v8.92c0,0.811-0.33,1.53-0.85,2.061c-0.05,0.05-0.1,0.09-0.15,0.14
	c-0.51,0.44-1.18,0.71-1.91,0.71h-5.76v-0.75h-3.91c-0.63,0-1.21-0.26-1.62-0.67c-0.12-0.12-0.23-0.26-0.32-0.41h-1.13
	c-0.6,0-1.1-0.5-1.1-1.11c0-0.609,0.5-1.1,1.1-1.1h1.01c0.25-0.54,0.73-0.96,1.3-1.16c-0.06-0.08-0.13-0.16-0.18-0.26h-1.13
	c-0.6,0-1.1-0.5-1.1-1.11c0-0.6,0.5-1.1,1.1-1.1h1.01c0.36-0.75,1.15-1.29,2.06-1.29h3.91v-0.16h1.85v-2.71h-3.68V318H215.75z"/>
<circle fill="#AAD3D5" cx="181.75" cy="344.546" r="4.125"/>
<circle fill="#AAD3D5" cx="318.417" cy="344.546" r="4.125"/>
<rect x="173.667" y="450.25" fill="#AAD3D5" width="27.75" height="14.5"/>
<path fill="#D7EEEF" d="M196.292,478c0,1.45-1.175,2.625-2.625,2.625h-12.25c-1.45,0-2.625-1.175-2.625-2.625v-10.125
	c0-1.45,1.175-2.625,2.625-2.625h12.25c1.45,0,2.625,1.175,2.625,2.625V478z"/>
<path fill="#73ACAE" d="M200.417,464.75c0-1.726-1.399-3.125-3.125-3.125h-19.5c-1.726,0-3.125,1.399-3.125,3.125l0,0
	c0,1.726,1.399,3.125,3.125,3.125h19.5C199.018,467.875,200.417,466.476,200.417,464.75L200.417,464.75z"/>
<path fill="#73ACAE" d="M198.292,476.5c0-1.588-1.287-2.875-2.875-2.875h-15.75c-1.588,0-2.875,1.287-2.875,2.875l0,0
	c0,1.588,1.287,2.875,2.875,2.875h15.75C197.004,479.375,198.292,478.088,198.292,476.5L198.292,476.5z"/>
<rect x="298.416" y="450.25" fill="#AAD3D5" width="27.75" height="14.5"/>
<path fill="#D7EEEF" d="M321.041,478c0,1.45-1.175,2.625-2.625,2.625h-12.25c-1.449,0-2.625-1.175-2.625-2.625v-10.125
	c0-1.45,1.176-2.625,2.625-2.625h12.25c1.45,0,2.625,1.175,2.625,2.625V478z"/>
<path fill="#73ACAE" d="M325.166,464.75c0-1.726-1.398-3.125-3.125-3.125h-19.5c-1.726,0-3.125,1.399-3.125,3.125l0,0
	c0,1.726,1.399,3.125,3.125,3.125h19.5C323.768,467.875,325.166,466.476,325.166,464.75L325.166,464.75z"/>
<path fill="#73ACAE" d="M323.041,476.5c0-1.588-1.287-2.875-2.875-2.875h-15.75c-1.588,0-2.875,1.287-2.875,2.875l0,0
	c0,1.588,1.287,2.875,2.875,2.875h15.75C321.754,479.375,323.041,478.088,323.041,476.5L323.041,476.5z"/>
<path fill="#D7EEEF" d="M208.125,250.625c0-2.209-1.791-4-4-4h-75.25c-2.209,0-4,1.791-4,4l0,0c0,2.209,1.791,4,4,4h75.25
	C206.334,254.625,208.125,252.834,208.125,250.625L208.125,250.625z"/>
<path fill="#D7EEEF" d="M291.99,250.333c0-2.209-1.791-4-4-4h-75.25c-2.209,0-4,1.791-4,4l0,0c0,2.209,1.791,4,4,4h75.25
	C290.199,254.333,291.99,252.542,291.99,250.333L291.99,250.333z"/>
<path fill="#AAD3D5" d="M297.33,259.99c-1.021-0.05-1.94-0.49-2.62-1.16c-0.72-0.73-1.17-1.73-1.17-2.83
	C293.54,256,295.22,259.75,297.33,259.99z"/>
<path fill="#D7EEEF" d="M402.781,250c0,0-1.68,3.75-3.79,3.99c-0.07,0.01-0.14,0.01-0.21,0.01h-102.79c-0.07,0-0.14,0-0.21-0.01
	c-2.11-0.24-3.79-3.99-3.79-3.99c0-2.21,1.79-4,4-4h102.79C400.991,246,402.781,247.79,402.781,250z"/>
<path fill="#73ACAE" d="M206.625,256c0-2.209-1.791-4-4-4h-75.25c-2.209,0-4,1.791-4,4l0,0c0,2.209,1.791,4,4,4h75.25
	C204.834,260,206.625,258.209,206.625,256L206.625,256z"/>
<path fill="#AAD3D5" d="M404.33,256c0,1.1-0.45,2.1-1.17,2.83c-0.67,0.67-1.59,1.11-2.62,1.16C402.65,259.75,404.33,256,404.33,256z
	"/>
<path fill="#73ACAE" d="M292.125,256c0-2.209-1.791-4-4-4h-75.25c-2.209,0-4,1.791-4,4l0,0c0,2.209,1.791,4,4,4h75.25
	C290.334,260,292.125,258.209,292.125,256L292.125,256z"/>
<path fill="#73ACAE" d="M404.33,256c0,0-1.68,3.75-3.79,3.99c-0.07,0.01-0.14,0.01-0.21,0.01H297.54c-0.07,0-0.14,0-0.21-0.01
	c-2.11-0.24-3.79-3.99-3.79-3.99c0-2.21,1.79-4,4-4h102.79C402.54,252,404.33,253.79,404.33,256z"/>
<polygon fill="#AAD3D5" points="328.17,260 328.17,301.33 287,301.33 287,287.88 203.75,287.88 203.75,301.33 175.75,301.33 
	175.75,296.25 179.17,296.25 179.17,298 183,298 183,287.88 150,287.88 150,260 "/>
<polygon fill="#AAD3D5" points="183,287.88 183,298 179.17,298 179.17,296.25 175.75,296.25 175.75,287.88 "/>
<rect x="136.5" y="291.25" fill="#D7EEEF" width="46.5" height="5"/>
<rect x="137.62" y="287.88" fill="#D7EEEF" width="45.38" height="5"/>
<rect x="150" y="287.875" fill="#73ACAE" width="3.833" height="10.126"/>
<rect x="179.17" y="287.88" fill="#73ACAE" width="3.83" height="10.12"/>
<rect x="187.75" y="256" fill="#73ACAE" width="18.875" height="21.5"/>
<rect x="273.116" y="256" fill="#73ACAE" width="18.875" height="21.5"/>
<rect x="385.455" y="256" fill="#73ACAE" width="18.875" height="21.5"/>
<circle fill="#AAD3D5" cx="202.75" cy="266.75" r="3.5"/>
<circle fill="#D7EEEF" cx="195.75" cy="266.75" r="2.5"/>
<circle fill="#AAD3D5" cx="286.25" cy="266.75" r="3.5"/>
<circle fill="#D7EEEF" cx="279.25" cy="266.75" r="2.5"/>
<circle fill="#AAD3D5" cx="399.726" cy="266.75" r="3.5"/>
<circle fill="#D7EEEF" cx="392.726" cy="266.75" r="2.5"/>
<g>
	<g>
		<path fill="#AAD3D5" d="M380.5,221.5v197h-47.33v-197H380.5 M383.5,218.5h-53.33v203h53.33V218.5L383.5,218.5z"/>
	</g>
</g>
<rect x="339.25" y="230.5" fill="#D7EEEF" width="26.25" height="14.5"/>
<rect x="333.5" y="260.125" fill="#AAD3D5" width="44.375" height="37.5"/>
<rect x="308" y="290.874" fill="#D7EEEF" width="83.621" height="5"/>
<rect x="308" y="287.504" fill="#D7EEEF" width="82.501" height="5"/>
<rect x="374.287" y="287.499" fill="#73ACAE" width="3.834" height="10.126"/>
<rect x="308" y="287.499" fill="#73ACAE" width="3.834" height="10.126"/>
<rect x="336.333" y="287.499" fill="#73ACAE" width="3.834" height="10.126"/>
<rect x="175.75" y="173.333" fill="#73ACAE" width="148.583" height="8.667"/>
<rect x="193.333" y="76.333" fill="#73ACAE" width="12.333" height="97"/>
<path fill="#73ACAE" d="M209.375,174.5c0-1.864-1.511-3.375-3.375-3.375h-13c-1.864,0-3.375,1.511-3.375,3.375l0,0
	c0,1.864,1.511,3.375,3.375,3.375h13C207.864,177.875,209.375,176.364,209.375,174.5L209.375,174.5z"/>
<rect x="209" y="39.5" fill="#D7EEEF" width="82" height="61"/>
<path fill="#AAD3D5" d="M299.325,106.448c0,1.61-1.305,2.916-2.916,2.916H203.59c-1.61,0-2.916-1.305-2.916-2.916V33.552
	c0-1.61,1.306-2.916,2.916-2.916h92.819c1.611,0,2.916,1.305,2.916,2.916V106.448z"/>
<rect x="210.749" y="40.801" fill="#D7EEEF" width="78.502" height="58.397"/>
<polygon fill="#73ACAE" points="274.561,51.5 263.721,88.5 255.891,88.5 248.99,64.92 242.08,88.5 234.25,88.5 223.42,51.5 
	231.25,51.5 238.17,75.12 245.07,51.53 245.08,51.5 252.891,51.5 252.9,51.55 259.811,75.12 266.721,51.5 "/>
</svg>
